<svg class="debugbar-icon" xmlns="http://www.w3.org/2000/svg" viewBox="0 0 512 512"><!-- Font Awesome Free 5.15.4 by @fontawesome - https://fontawesome.com License - https://fontawesome.com/license/free (Icons: CC BY 4.0, Fonts: SIL OFL 1.1, Code: MIT License) --><path fill="currentColor" d="M 288,136 V 0 H 88 C 74.7,0 64,10.7 64,24 v 464 c 0,13.3 10.7,24 24,24 h 336 c 13.3,0 24,-10.7 24,-24 V 160 H 312 c -13.2,0 -24,-10.8 -24,-24 z m 64,236 c 0,6.6 -5.4,12 -12,12 H 172 c -6.6,0 -12,-5.4 -12,-12 v -8 c 0,-6.6 5.4,-12 12,-12 h 168 c 6.6,0 12,5.4 12,12 z m 0,-64 c 0,6.6 -5.4,12 -12,12 H 172 c -6.6,0 -12,-5.4 -12,-12 v -8 c 0,-6.6 5.4,-12 12,-12 h 168 c 6.6,0 12,5.4 12,12 z m 0,-72 v 8 c 0,6.6 -5.4,12 -12,12 H 172 c -6.6,0 -12,-5.4 -12,-12 v -8 c 0,-6.6 5.4,-12 12,-12 h 168 c 6.6,0 12,5.4 12,12 z M 448,121.9 V 128 H 320 V 0 h 6.1 c 6.4,0 12.5,2.5 17,7 l 97.9,98 c 4.5,4.5 7,10.6 7,16.9 z"/></svg>
